<svg width="32" height="32" viewBox="0 0 32 32" fill="none" xmlns="http://www.w3.org/2000/svg">
<path d="M30 12.11H20.15L17.74 5.02L17.15 3.27L16.95 2.67L16 2L15.05 2.67L14.85 3.27L14.26 5.02L11.85 12.11H2L1 12.73L1.43 13.9L1.99 14.29L3.52 15.34L9.5 19.45L7.28 26.29L6.72 28.02L6.49 28.73L6.7 30.01L8.03 29.82L8.63 29.39L10.15 28.3L16 24.11L21.85 28.3L23.37 29.39L23.97 29.82L25.37 30.01L25.51 28.73L25.28 28.02L24.72 26.29L22.5 19.45L28.48 15.34L30.01 14.29L30.57 13.9L31 12.83L30 12.11Z" fill="#2F7557"/>
<path d="M27.46 13.09H19.43L16.8 5.32998L16.21 3.57998L16.01 2.97998L15.81 3.57998L15.22 5.32998L12.59 13.09H2L2.56 13.48L4.09 14.53L10.67 19.06L8.23 26.58L7.67 28.31L7.44 29.02L8.04 28.59L9.56 27.5L16 22.89L22.44 27.5L23.96 28.59L24.56 29.02L24.33 28.31L23.77 26.58L21.33 19.06L27.91 14.53L29.44 13.48L30 13.09H27.46ZM19.11 18.32L21.02 24.19L16 20.6L10.98 24.19L12.89 18.32L7.98 14.94H13.93L16 8.83998L18.07 14.94H24.02L19.11 18.32Z" fill="#B3FFC7"/>
</svg>
