<svg width="32" height="32" viewBox="0 0 32 32" fill="none" xmlns="http://www.w3.org/2000/svg">
<path d="M16 1C7.73 1 1 7.73 1 16C1 24.27 7.73 31 16 31C24.27 31 31 24.27 31 16C31 7.73 24.27 1 16 1Z" fill="#55555F"/>
<path d="M15.9999 2.19C8.36994 2.19 2.18994 8.37 2.18994 16C2.18994 23.63 8.36994 29.81 15.9999 29.81C23.6299 29.81 29.8099 23.63 29.8099 16C29.8099 8.37 23.6299 2.19 15.9999 2.19ZM15.9999 27.51C9.64994 27.51 4.48994 22.35 4.48994 16C4.48994 9.65 9.64994 4.49 15.9999 4.49C22.3499 4.49 27.5099 9.65 27.5099 16C27.5099 22.35 22.3499 27.51 15.9999 27.51Z" fill="#F1F1F1"/>
<path d="M16 6.78998C10.91 6.78998 6.79004 10.91 6.79004 16C6.79004 21.09 10.91 25.21 16 25.21C21.09 25.21 25.21 21.09 25.21 16C25.21 10.91 21.09 6.78998 16 6.78998ZM20.9 20.12L15.9 23.05L10.9 20.12V14.88L13.22 16.22V18.72L14.62 19.51V15H14.07L12.06 13.9V12.56H14.62V11.83L13.4 10.79V9.44998H18.4V10.79L17.18 11.83V12.56H19.74V13.9L17.67 14.94H17.12V19.51H17.18L18.58 18.72V16.22L20.9 14.88V20.12Z" fill="#F1F1F1"/>
</svg>
