<svg width="32" height="32" viewBox="0 0 32 32" fill="none" xmlns="http://www.w3.org/2000/svg">
<path d="M26 10.94L27.91 12.57L27.22 14.16C27.22 14.16 27.04 14.16 26.71 14.16C26.18 14.16 25.55 14.15 24.66 14.09L24.42 14.69L25.26 17.26L24.73 18.26L24.14 18.22L24.12 18.44L23.88 20.63L23.84 20.8L23.02 23.36L22.15 24.05L19.99 23.93L16.72 31.01H15.16L3 7.65001L5.08 4.84001L26.13 2.01001L29 4.45001L26 10.95V10.94Z" fill="#55555E"/>
<path d="M23.6001 15.37L24.2001 17.26L23.1801 17.59L23.1101 18.33L22.8401 20.51L21.9301 23.02L19.4201 22.88L15.9701 21.83C15.0601 21.55 14.3101 20.92 13.9201 20.09L13.5101 19.24L13.4001 20.52L13.6301 21.02C14.0401 21.89 14.8101 22.56 15.7601 22.86L18.1501 25.06L15.8801 29.84L11.0701 20.82L11.1001 18.92L10.3101 18.41L8.85006 13.88L9.74006 13.61L13.3001 12.58L16.6501 12.61C16.6501 12.61 19.8901 15.03 23.6001 15.38V15.37ZM24.7501 11.45L16.8901 11.47C21.0301 13.57 27.1901 13.36 27.1901 13.36L24.7501 11.45ZM25.1801 9.23004L24.7301 8.95004L25.1101 6.64004L27.1601 4.91004L26.8001 4.34004C17.2401 3.41004 5.52006 6.61004 5.52006 6.61004L4.81006 7.20004L7.29006 8.87004L8.52006 12.65L13.3801 11.46H16.8801L25.1501 9.82004L25.1701 9.23004H25.1801Z" fill="#F1F1F1"/>
</svg>
