<svg width="32" height="32" viewBox="0 0 32 32" fill="none" xmlns="http://www.w3.org/2000/svg">
<path opacity="0.98" d="M3 9.155L15.5 16.435V23.445L3 16.165V9.155ZM28.5 8.28L16 15.56L3.5 8.28L16 1L28.5 8.28ZM20.2 10.73L21.025 8.345L17.855 6.495L17.47 7.61L19.06 8.535L18.83 9.205L15.975 7.54L16.235 7.39L16.575 6.415L15.87 6.005L14.605 6.745L14.17 6.49L14.18 5.8L13.43 5.365L10.99 6.785L11.74 7.22H12.925L13.36 7.47L12.095 8.21L12.8 8.62L14.475 8.425L14.735 8.275L17.59 9.94L16.44 10.075L14.85 9.15L12.94 9.375L16.11 11.225L20.205 10.745L20.2 10.73ZM3 23.72L15.5 31V24.615L3 17.335V23.72ZM23.5 18.46L22.5 19.045V22.54L23.5 21.955V18.46ZM24.5 21.955V22.54L24 22.83L23 23.415L21.5 24.29V21.715L16.5 24.63V31.005L29 23.725V17.35L24.5 19.97V21.96V21.955ZM16.5 16.435V23.455L21.5 20.54V18.455L22 18.165L23 17.58L24.5 16.705V18.79L29 16.17V9.15L16.5 16.43V16.435Z" fill="#F1F1F1"/>
<g opacity="0.98">
<path d="M16 1.00001L28.5 8.28001L16 15.56L3.5 8.28001L16 1.00001ZM11.725 7.21501H12.91L13.345 7.46501L12.08 8.20501L12.785 8.61501L14.46 8.42001L14.72 8.27001L17.575 9.93501L16.425 10.07L14.835 9.14501L12.925 9.37001L16.095 11.22L20.19 10.74L21.015 8.35501L17.845 6.50501L17.46 7.62001L19.05 8.54501L18.82 9.21501L15.965 7.55001L16.225 7.40001L16.565 6.42501L15.86 6.01501L14.595 6.75501L14.16 6.50001L14.17 5.81001L13.42 5.37501L10.98 6.79501L11.73 7.23001M29 9.15501V16.175L24.5 18.795V16.71L23 17.585L22 18.17L21.5 18.46V20.545L16.5 23.46V16.44L29 9.16001M3 9.15501L15.5 16.435V23.445L3 16.165V9.15501ZM3 17.335L15.5 24.615V31L3 23.72V17.335ZM29 17.345V23.72L16.5 31V24.625L21.5 21.71V24.285L23 23.41L24 22.825L24.5 22.535V19.96L29 17.34M23.5 18.46V21.955L22.5 22.54V19.045L23.5 18.46ZM16.505 0.13501H15.5L2.995 7.41501L2 9.15501V23.72L2.495 24.585L14.995 31.865H17L29.5 24.585L29.995 23.72V9.15501L29 7.41501L16.505 0.13501ZM15.99 23.745L16.01 23.755H16.005L15.99 23.745Z" fill="#55555F"/>
</g>
</svg>
