<svg width="32" height="32" viewBox="0 0 32 32" fill="none" xmlns="http://www.w3.org/2000/svg">
<path d="M30.0099 15.74L29.9399 15.75L30.1699 15.4L30.2999 15.09L30.5199 14.21L30.5399 14.1L30.7299 12.71L29.6199 11.97L29.6499 11.89L29.8999 10.89L29.9199 10.59L29.8499 9.44002L29.8399 8.44002L28.2399 7.65002L28.1199 7.74002L28.0599 7.18002L27.9799 6.88002L27.6299 6.08002L27.5799 5.98002L26.9099 4.83002L25.3299 4.99002L25.0899 4.51002L24.9099 4.26002L24.3099 3.63002L24.2199 3.56002L23.1899 2.71002L22.3399 3.13002L21.7099 2.68002L21.3699 2.52002L20.4599 2.30002L20.1499 2.27002L19.3299 2.33002L19.2199 2.34002L17.9899 2.56002L17.9199 2.84002H13.9099L13.8399 2.56002L12.6099 2.34002L12.4999 2.33002L11.6799 2.27002L11.3699 2.30002L10.4599 2.52002L10.1199 2.68002L9.48992 3.13002L8.63992 2.71002L7.60992 3.56002L7.52992 3.63002L6.91992 4.26002L6.73992 4.51002L6.49992 4.99002L4.91992 4.83002L4.24992 5.98002L4.19992 6.08002L3.84992 6.88002L3.76992 7.18002L3.71992 7.74002L3.58992 7.65002L1.98992 8.44002L1.96992 9.49002L1.90993 10.59L1.92992 10.89L2.17992 11.89L2.20992 11.97L1.09992 12.71L1.28992 14.1L1.30992 14.21L1.52992 15.09L1.65993 15.4L1.88992 15.75L1.81992 15.74L0.919922 17.27L1.36993 18L1.80992 18.8L1.98992 19.04L2.57993 19.6H2.47993L1.81992 21.28L2.74992 22.29L2.82993 22.37L3.49992 22.94L3.77992 23.11L4.45992 23.38L4.36993 24.71L5.13992 25.18L5.92992 25.71L6.20992 25.84L7.05992 26.1L7.28992 26.12L7.41992 27.27L8.52992 27.69L8.63992 27.73L9.37992 27.91L9.71992 27.94L10.5599 27.86L10.9799 27.72L11.6299 27.33L12.5499 27.7L12.4599 27.74L12.0399 29.16L12.4899 29.91L13.8399 30.27L15.8999 29.15L15.9199 29.14L15.9299 29.15L17.9899 30.27L19.3399 29.91L19.7899 29.16L19.3699 27.74L19.2799 27.7L20.1999 27.33L20.8599 27.72L21.2799 27.86L22.1099 27.94L22.4499 27.91L23.1899 27.73L23.2999 27.69L24.4099 27.27L24.5399 26.12L24.7699 26.1L25.6199 25.84L25.8999 25.71L26.7299 25.15L27.4599 24.71L27.3699 23.38L28.0499 23.11L28.3299 22.94L28.9999 22.37L29.0799 22.29L30.0099 21.28L29.3499 19.6H29.2499L29.8399 19.04L30.0199 18.8L30.4899 17.96L30.9199 17.27L30.0099 15.74Z" fill="#916424"/>
<path d="M16.1401 28.69L15.9201 28.59L15.6601 28.71L13.6001 29.84L12.9301 29.66L12.4701 28.91L12.6801 28.2L13.8001 27.66L11.7601 26.84L11.5801 26.73L11.5201 26.81L10.7101 27.29L10.5001 27.36L9.6701 27.44H9.5001L8.7601 27.24L7.5901 26.8L7.4901 25.91L8.0001 25.58L7.3901 25.64L7.2001 25.62L6.3401 25.36L6.2001 25.3L5.3701 24.74L4.6201 24.29L4.6801 23.41L5.5201 23.04L5.0801 23.06L4.8701 23.02L3.9601 22.66L3.8201 22.58L3.1501 22.01L2.1801 20.97L2.5101 20.13L3.4801 20.05L4.4501 19.93L4.3401 19.77H4.0601L3.1201 19.39L2.9601 19.29L2.3401 18.7L2.2501 18.58L1.7901 17.74L1.3501 17.03L1.8001 16.27L3.0701 16.33H3.1501L2.7901 16.12L2.6301 15.97L2.0901 15.15L2.0201 15L1.8001 14.12L1.6001 12.67L2.3401 12.17L3.2301 12.67L2.7401 11.97L2.6601 11.8L2.4101 10.79V10.64L2.4601 9.49004V8.47004L3.2701 8.07004L4.2901 8.82004L4.1701 8.41004L4.1501 8.22004L4.2501 7.24004L4.2901 7.09004L4.6401 6.29004L5.3301 5.08004L6.2401 5.18004L6.5401 6.11004L6.6301 6.35004L6.6801 5.80004L6.7301 5.62004L7.1701 4.74004L7.2601 4.62004L7.8701 3.99004L8.9501 3.10004L9.7701 3.51004V3.55004L10.4101 3.09004L10.5801 3.01004L11.4701 2.79004L11.8701 3.50004L12.0201 3.35004H19.9601L20.1701 3.56004L20.5701 2.85004L21.2401 3.02004L21.4101 3.10004L22.0501 3.56004V3.52004L22.8601 3.11004L23.8901 3.96004L24.5401 4.62004L24.6301 4.74004L25.0701 5.62004L25.1201 5.80004L25.1701 6.35004L25.2601 6.09004L25.5501 5.18004L26.4601 5.08004L27.1301 6.24004L27.5001 7.09004L27.5401 7.24004L27.6401 8.22004L27.6201 8.41004L27.5001 8.82004L28.5201 8.07004L29.3201 8.47004V9.51004L29.4001 10.64V10.79L29.1401 11.8L29.0601 11.97L28.5701 12.67L29.4601 12.17L30.2001 12.67L30.0201 14.06L29.7901 14.99L29.7201 15.14L29.1801 15.96L29.0201 16.11L28.6701 16.32L30.0101 16.25L30.4601 17.01L30.0101 17.74L29.5601 18.56L29.4701 18.68L28.8501 19.27L28.6901 19.37L27.7501 19.74H27.4701L27.3601 19.9L28.3501 20.02L29.3001 20.09L29.6301 20.93L28.7001 21.93L27.9901 22.55L27.8501 22.63L26.9401 22.99L26.7301 23.03L26.2801 23.01L27.1201 23.38L27.1801 24.26L26.4101 24.73L25.6001 25.28L25.4601 25.34L24.6001 25.6L24.4101 25.62L23.8001 25.56L24.3101 25.89L24.2101 26.78L23.1001 27.2L22.3001 27.4H22.1301L21.3001 27.33L21.0901 27.26L20.2801 26.78L20.2301 26.71L20.1101 26.78L18.0101 27.63L19.1301 28.17L19.3401 28.88L18.8801 29.63L18.2101 29.81L16.1101 28.66L16.1401 28.69ZM15.0101 26.31L15.9201 26.69L16.1601 26.59H15.7601L12.4301 24.69L12.6901 25.12V25.33L12.6601 25.42L15.0201 26.31H15.0101ZM16.4701 26.47L16.8201 26.32L19.1901 25.42L19.1601 25.34V25.23L19.4101 24.8L16.4801 26.47H16.4701ZM21.4701 24.06L21.6901 23.49L22.8801 22.81L21.1201 23.81L21.4801 24.05L21.4701 24.06ZM10.3501 23.88L10.7101 23.72L10.1701 23.42L10.3501 23.88ZM9.6001 23.09L7.8701 22.1L7.9001 22.15L7.7301 22.6H7.8401L8.0601 22.67L8.1901 22.74L8.6101 22.52L9.6101 23.09H9.6001ZM23.5101 22.82L23.7801 22.67L24.0001 22.61H24.2301L24.0701 22.2L24.1201 22.11L23.2101 22.63L23.5001 22.83L23.5101 22.82ZM24.5001 12.75V21.46V19.98L25.0801 19.76L24.8001 19.44L24.7001 19.25L24.5101 18.6L24.4901 18.46V17.27L24.7001 16.01L25.2101 15.86L25.0001 15.44L24.9601 15.31L24.7901 14.36L24.6001 13.54L25.2901 12.97L26.4001 13.47L26.9201 13.78L27.4601 13.28L27.2501 13.32L26.9301 13.23L26.8201 13.27L25.8801 13.18L25.6701 13.11L24.9501 12.68L24.8201 12.57L24.3201 11.97L23.6301 10.92L23.9501 10.36L23.7601 10.29L23.6401 10.22L22.9701 9.69004L22.8501 9.60004L22.6401 9.19004V8.79004H22.7701L22.8701 8.37004L22.4401 8.29004L22.2701 8.22004L21.6201 7.82004L21.5101 7.73004L20.9401 7.09004L20.4601 6.60004L20.3801 6.12004L20.2801 6.33004L18.5101 7.82004V8.31004H22.1301L22.6301 8.81004V10.78L22.3801 11.21L19.1001 13.08L18.8501 13.15H18.5101V19.76L19.7601 19.05V14.91L20.0101 14.48L23.7401 12.35L24.4901 12.78L24.5001 12.75ZM7.5001 19.79V12.76L8.2501 12.33L11.9801 14.46L12.2301 14.89V19.03L13.4801 19.74V13.13H13.1401L12.8901 13.06L9.6101 11.19L9.3601 10.76V8.79004L9.8601 8.29004H13.4801V7.80004L11.7101 6.31004L11.5301 5.93004V5.22004L11.1101 5.70004H11.1201L11.4101 6.55004L10.8701 7.10004L10.3201 7.72004L10.2101 7.81004L9.5601 8.21004L9.3901 8.28004L9.0701 8.34004L9.1701 8.78004H9.3501V9.06004L9.1401 9.47004L8.8301 9.69004L8.1801 10.2L8.0601 10.27L7.8701 10.34L8.1901 10.9L7.5301 11.91L7.0001 12.55L6.8701 12.66L6.1501 13.09L5.9401 13.16L5.0001 13.25L4.8901 13.21L4.5701 13.3L4.3601 13.26L4.9001 13.76L5.3701 13.48L6.5301 12.96L7.2201 13.53L7.0301 14.37L6.8601 15.3L6.8201 15.43L6.6101 15.85L7.1201 16L7.3401 17.29L7.3901 18.19L7.3701 18.36L7.1201 19.24L7.0201 19.43L6.9101 19.56L7.4901 19.78L7.5001 19.79ZM26.2001 10.29L26.2501 10.19H26.1901L26.1101 10.26L26.2001 10.29ZM5.6301 10.29L5.7201 10.26L5.6401 10.18H5.5801L5.6301 10.28V10.29ZM7.0401 7.92004L7.2601 7.89004L7.0101 7.59004L7.0501 7.92004H7.0401ZM24.8001 7.92004L24.8401 7.59004L24.5901 7.89004L24.8101 7.92004H24.8001ZM20.4701 5.93004V5.96004L20.7801 5.70004H20.8601L20.4701 5.25004V4.06004V5.94004V5.93004Z" fill="#FFCC66"/>
<path d="M11.5999 3.27003L11.0299 3.84003V5.22003L10.2299 5.32003L9.69992 4.94003L9.84992 4.10003L10.6999 3.49003L11.5899 3.27003M20.4499 3.33003L21.1199 3.50003L21.9699 4.11003L22.1199 4.95003L21.5899 5.33003L20.9599 5.25003V3.85003L20.4399 3.33003M22.5499 3.48003L23.5799 4.33003L24.1899 4.96003L24.6299 5.84003L24.7199 6.94003L24.1499 7.62003L23.8999 7.56003V7.65003L23.3999 7.98003L22.5299 7.81003L21.8799 7.41003L21.3199 6.77003L20.8199 6.26003L20.8399 6.21003L21.8499 6.07003H22.5499L22.7399 6.12003L22.5999 5.57003V4.48003L22.5399 3.50003M9.27992 3.48003L9.22993 4.46003V5.55003L9.07993 6.10003L9.26992 6.04003H9.96992L11.0499 6.21003L10.5099 6.76003L9.94992 7.40003L9.29993 7.80003L8.42992 7.97003L7.92992 7.64003V7.55003L7.67992 7.61003L7.10992 6.93003L7.19992 5.83003L7.63992 4.95003L8.24992 4.32003L9.27992 3.47003M19.9699 3.84003V5.93003L18.0199 7.57003V8.79003H22.1399V10.76L18.8599 12.63H18.0199V20.6L20.2699 19.32V14.89L23.9999 12.76V21.61L15.9999 26.17L7.99992 21.61V12.76L11.7299 14.89V19.32L13.9799 20.6V12.63H13.1399L9.85992 10.76V8.79003H13.9799V7.57003L12.0299 5.93003V3.84003H19.9699ZM26.0399 5.32003L26.7099 6.48003L27.0599 7.28003L27.1599 8.26003L26.8599 9.32003L26.0799 9.76003L25.9799 9.69003L25.5399 10.11H24.6599L23.9499 9.82003L23.2799 9.29003L23.1399 9.19003V8.79003L23.0599 8.71003L23.6899 8.50003L24.3799 8.36003L25.1399 8.46003L25.3499 8.60003L25.2699 8.25003L25.3699 7.27003L25.7499 6.25003L26.0499 5.32003M5.78992 5.32003L6.08992 6.25003L6.46992 7.27003L6.56992 8.25003L6.48992 8.60003L6.69992 8.46003L7.45992 8.36003L8.14993 8.50003L8.89993 8.75003L8.85992 8.79003V9.07003L8.54993 9.29003L7.87992 9.82003L7.16992 10.1H6.28992L5.84992 9.70003L5.74992 9.76003L4.96992 9.32003L4.66992 8.26003L4.76992 7.28003L5.11993 6.48003L5.78992 5.32003ZM28.8399 8.46003V9.50003L28.9199 10.65L28.6799 11.66L27.9799 12.66L27.1599 12.84L26.9899 12.68L26.8799 12.78L25.9399 12.69L25.2199 12.26L24.7199 11.66L24.0599 10.65L24.8999 10.7H25.8399L26.4599 10.9L26.9199 10.02L27.6299 9.36003L28.8499 8.47003M2.98992 8.46003L4.20992 9.35003L4.91992 10.01L5.37992 10.89L5.99992 10.7H6.93993L7.77992 10.64L7.11993 11.65L6.61993 12.25L5.89993 12.68L4.95992 12.77L4.84992 12.67L4.67992 12.83L3.85992 12.65L3.15993 11.65L2.90993 10.64L2.97993 9.49003V8.45003M29.7299 12.58L29.5499 13.97L29.3299 14.85L28.7899 15.67L27.8599 16.25L27.5499 16.16L27.2499 16.66H26.5799L25.8499 16L25.4699 15.23L25.2999 14.28L25.1099 13.44L26.2199 13.94L26.8899 14.34L27.0499 14.53L27.1999 14.23L27.9099 13.56L28.8899 13.07L29.7399 12.59M2.09992 12.58L2.94992 13.06L3.92992 13.55L4.63992 14.22L4.78992 14.52L4.94992 14.33L5.61993 13.93L6.72993 13.43L6.53992 14.27L6.36993 15.22L5.98992 15.99L5.25993 16.66H4.58992L4.28992 16.15L3.97993 16.24L3.04993 15.66L2.50993 14.84L2.28992 13.96L2.10992 12.57M25.1999 16.1L25.8299 16.77L26.5599 17.48L26.8299 17.95L27.2299 17.35L27.9899 16.93L28.7899 16.8L30.0599 16.74L29.6099 17.47L29.1499 18.31L28.5299 18.9L27.5899 19.27L27.1399 19.09L27.1699 19.31L26.7699 19.91L25.8599 19.88L25.1899 19.1L24.9999 18.45V17.26L25.1999 16.08M6.62992 16.1L6.84992 17.39L6.89993 18.23L6.64993 19.11L5.97993 19.89L5.06992 19.92L4.66992 19.32L4.69992 19.1L4.24992 19.28L3.30992 18.91L2.68993 18.32L2.22993 17.48L1.77992 16.75L3.04993 16.81L3.84992 16.94L4.60992 17.36L5.00993 17.96L5.27992 17.49L6.00993 16.78L6.63992 16.11M6.99992 19.79V21.6L7.46992 22.4L7.00993 22.55L6.50993 22.12L6.16992 22.51L5.07993 22.55L4.16992 22.19L3.49992 21.62L2.56992 20.62L3.53992 20.54L4.61993 20.41L5.57993 20.56L6.33992 20.98L6.63992 20.24L7.01992 19.81M24.9999 19.98L25.2099 20.22L25.5099 20.96L26.2699 20.54L27.2299 20.39L28.3099 20.52L29.2799 20.6L28.3499 21.6L27.6799 22.17L26.7699 22.53L25.6799 22.49L25.3399 22.1L24.8399 22.53L24.5199 22.43L25.0099 21.58V19.96M8.34992 22.95L9.91992 23.85L9.82993 24.11L9.04993 24.51L8.85992 24.36L8.88992 24.5L8.39993 25.05L7.34992 25.14L6.48992 24.88L5.65993 24.32L4.88992 23.85L6.08992 23.31L6.89993 23.06L7.79993 23.09L8.41992 23.43L8.33992 22.96V22.94M23.4699 23.05L23.4099 23.44L24.0299 23.1L24.9299 23.07L25.7399 23.32L26.9399 23.86L26.1699 24.33L25.3399 24.89L24.4799 25.15L23.4299 25.06L22.9399 24.51L22.9699 24.37L22.7799 24.52L21.9999 24.12L21.9399 23.94L23.4699 23.07M10.4599 24.15L12.1799 25.13V25.34L11.8199 25.74L12.3499 25.83L14.8299 26.78L15.9199 27.23L16.4199 27.03H16.4999L16.7199 26.91L17.0099 26.79L19.4899 25.84L20.0199 25.75L19.6599 25.35V25.24L21.3699 24.26L21.2699 24.93L21.1699 25.08L21.8099 25.06L22.5999 25.33L23.3599 25.88L24.0599 26.34L22.9499 26.76L22.2099 26.95L21.3799 26.87L20.5699 26.39L20.4899 26.03L19.8899 26.38L17.8199 27.21L16.8399 27.64L18.9399 28.65L18.4799 29.4L16.3799 28.25L15.9199 28.05L15.4599 28.25L13.3599 29.4L12.8999 28.65L14.9999 27.64L14.0199 27.21L11.9499 26.38L11.3499 26.03L11.2699 26.39L10.4599 26.87L9.62992 26.95L8.88992 26.76L7.77992 26.34L8.47993 25.88L9.23992 25.33L10.0199 25.06L10.6599 25.08L10.5599 24.93L10.4499 24.17M11.3599 2.30003L10.4699 2.52003L10.1299 2.68003L9.49992 3.13003L8.64993 2.70003L7.61993 3.55003L7.53992 3.63003L6.92992 4.26003L6.74992 4.51003L6.50993 5.00003L4.92992 4.83003L4.25993 5.99003L4.20992 6.09003L3.85992 6.89003L3.77992 7.18003L3.71992 7.75003L3.57993 7.65003L1.98992 8.44003V9.48003L1.90993 10.59L1.93993 10.89L2.18993 11.9L2.21992 11.97L1.10992 12.72L1.28992 14.11L1.30992 14.22L1.52992 15.1L1.66992 15.41L1.89993 15.76H1.81992L0.919922 17.28L1.36993 18.01L1.80992 18.81L1.99992 19.05L2.58992 19.61H2.47993L1.82993 21.29L2.75993 22.29L2.83992 22.37L3.50993 22.94L3.78992 23.11L4.46992 23.38L4.38992 24.71L5.15993 25.18L5.94992 25.71L6.21992 25.84L7.07993 26.1L7.30992 26.12L7.42992 27.27L8.53992 27.69L8.64993 27.73L9.38992 27.92L9.72993 27.95L10.5599 27.87L10.9799 27.73L11.6399 27.34L12.5599 27.71L12.4699 27.75L12.0499 29.17L12.5099 29.92L13.8399 30.28L15.8999 29.15H15.9199H15.9399L17.9999 30.28L19.3299 29.92L19.7899 29.17L19.3699 27.75L19.2799 27.7L20.1999 27.33L20.8599 27.72L21.2799 27.86L22.1099 27.94L22.4499 27.91L23.1899 27.72L23.2999 27.68L24.4099 27.26L24.5299 26.11L24.7599 26.09L25.6199 25.83L25.8899 25.7L26.7199 25.14L27.4499 24.7L27.3699 23.37L28.0499 23.1L28.3299 22.93L28.9999 22.36L29.0799 22.28L30.0099 21.28L29.3599 19.6H29.2499L29.8399 19.03L30.0299 18.79L30.4899 17.95L30.9199 17.26L30.0199 15.73H29.9399L30.1699 15.39L30.3099 15.08L30.5299 14.2L30.5499 14.09L30.7299 12.7L29.6199 11.95L29.6499 11.88L29.8899 10.87L29.9199 10.57L29.8499 9.42003V8.43003L28.2499 7.64003L28.1099 7.74003L28.0499 7.17003L27.9699 6.88003L27.6199 6.08003L27.5699 5.98003L26.8999 4.82003L25.3199 4.99003L25.0799 4.50003L24.8999 4.25003L24.2899 3.62003L24.2099 3.54003L23.1799 2.69003L22.3299 3.12003L21.6999 2.67003L21.3599 2.51003L20.6899 2.34003L20.2499 3.11003L19.9599 2.82003H12.0199L11.7899 3.05003L11.3499 2.28003L11.3599 2.30003ZM11.2499 7.43003L11.6999 6.96003L12.6799 7.79003H10.9199L11.2399 7.43003H11.2499ZM19.3099 7.79003L20.1999 7.04003L20.5799 7.43003L20.8999 7.79003H19.2999H19.3099ZM8.32993 10.7L8.49992 10.6L8.85992 10.31V10.75L9.36993 11.62L12.6499 13.49L12.9899 13.58V18.87L12.7399 18.73V14.88L12.2399 14.01L8.50993 11.88L7.95992 12.2L8.61993 11.19L8.33992 10.7H8.32993ZM19.0199 13.59L19.3599 13.5L22.6399 11.63L23.1499 10.76V10.45L23.3499 10.61L23.5199 10.71L23.2399 11.2L23.7999 12.05L23.5299 11.89L19.7999 14.02L19.2999 14.89V18.74L19.0499 18.88V13.59H19.0199Z" fill="#916424"/>
</svg>
