<svg width="32" height="32" viewBox="0 0 32 32" fill="none" xmlns="http://www.w3.org/2000/svg">
<path d="M31.13 3H20.24L19.37 3.5L16.65 8.18L16 9.31L12.63 3.5L11.76 3H0.87L0.15 3.53L0 4.5L14.52 29.5L14.75 29.87L15.13 30.51L16 31L16.86 30.53L17.27 29.87L19.99 25.19L20.79 23.81L21.51 22.56L22.31 21.18L32 4.5L31.94 3.53L31.13 3Z" fill="#292C31"/>
<path d="M20.2401 4L17.5201 8.68L16.7201 10.06L17.5201 11.44L18.2501 12.7L19.0501 14.08L19.8501 12.7L22.6801 7.82H24.2401L19.1001 16.68L11.7401 4H0.870117L15.3901 29L15.6101 29.35L16.0001 30.01L16.4101 29.35L19.1101 24.7L19.9101 23.32L19.1101 21.94L18.3101 23.32L16.0001 27.3L3.28012 5.38H10.9501L18.3101 18.06L16.0001 22.04L7.75012 7.82H9.31012L16.0101 19.35L16.8101 17.97L16.7001 17.78L10.9201 7.82L10.1201 6.44H5.35012L6.15012 7.82L15.2101 23.42L16.0101 24.8L16.8101 23.42L19.1201 19.44L19.8401 20.68L20.6401 22.06L21.4401 20.68L31.1301 4H20.2501H20.2401ZM20.6401 19.3L19.9201 18.06L25.8601 7.82L26.6601 6.44H21.8901L21.0901 7.82L19.0601 11.32L18.3301 10.06L21.0501 5.38H28.7201L20.6401 19.3Z" fill="#B4B6B5"/>
<path d="M0.870117 4L11.4801 4.48L19.1201 16.68L11.7601 4H0.870117Z" fill="#E6E6E6"/>
<path d="M16.7302 10.06L20.2402 4H31.1302L20.5502 4.49L16.7302 10.06Z" fill="#E6E6E6"/>
<path d="M19.0601 11.32L21.9001 6.44H26.6701L22.1401 6.85L19.0601 11.32Z" fill="#E6E6E6"/>
<path d="M5.34009 6.44H10.1101L16.8001 17.97L9.87009 6.86L5.34009 6.44Z" fill="#E6E6E6"/>
<path d="M18.31 18.06L16.16 22.37L16 22.04L18.31 18.06Z" fill="#E6E6E6"/>
<path d="M24.2601 7.82001L19.1201 16.68L19.3201 16.99L24.2601 7.82001Z" fill="#E6E6E6"/>
<path d="M20.8101 19.58L20.6401 19.3L28.7201 5.38L20.8101 19.58Z" fill="#E6E6E6"/>
<path d="M19.11 21.93L16.23 27.66L16 27.29L19.11 21.93Z" fill="#E6E6E6"/>
<path d="M7.75016 7.82001L7.66016 8.32001L16.0002 22.04L7.75016 7.82001Z" fill="#E6E6E6"/>
<path d="M3.28019 5.38L3.19019 5.79L16.2302 27.66L3.28019 5.38Z" fill="#E6E6E6"/>
</svg>
